<svg xmlns="http://www.w3.org/2000/svg" width="64" height="64" fill="none" viewBox="0 0 64 64"><path fill="#1976D2" fill-rule="evenodd" d="M20 16a4 4 0 0 0-4 4v7a4 4 0 0 0 4 4h1.5v6.5a5 5 0 0 0 5 5H33V44a4 4 0 0 0 4 4h7a4 4 0 0 0 4-4v-7a4 4 0 0 0-4-4h-7a4 4 0 0 0-4 4v1.5h-5.5a2 2 0 0 1-2-2V31H27a4 4 0 0 0 4-4v-7a4 4 0 0 0-4-4zm7 5.5a1.5 1.5 0 0 0-1.5-1.5h-4a1.5 1.5 0 0 0-1.5 1.5v4a1.5 1.5 0 0 0 1.5 1.5h4a1.5 1.5 0 0 0 1.5-1.5zm17 17a1.5 1.5 0 0 0-1.5-1.5h-4a1.5 1.5 0 0 0-1.5 1.5v4a1.5 1.5 0 0 0 1.5 1.5h4a1.5 1.5 0 0 0 1.5-1.5z" clip-rule="evenodd"/><rect width="63" height="63" x="0.5" y="0.5" stroke="#D3D3D3" rx="31.5"/></svg>