<svg xmlns="http://www.w3.org/2000/svg" width="214" height="40" fill="none" viewBox="0 0 214 40"><path fill="#000" d="M65.324 19.621v5.49c-.226.255-.57.53-1.034.823-.457.293-1.043.545-1.757.757-.715.206-1.566.309-2.556.309-.896 0-1.71-.143-2.444-.43a5.202 5.202 0 0 1-1.889-1.281c-.526-.568-.933-1.26-1.221-2.077-.282-.816-.423-1.751-.423-2.805v-.805c0-1.053.141-1.988.423-2.805.282-.817.68-1.506 1.193-2.067a5.048 5.048 0 0 1 1.833-1.29c.708-.293 1.49-.44 2.35-.44 1.22 0 2.22.196 2.997.59.777.386 1.366.922 1.767 1.608.407.685.657 1.474.751 2.366h-2.95a3.267 3.267 0 0 0-.376-1.179 1.826 1.826 0 0 0-.78-.757c-.339-.18-.777-.271-1.316-.271-.432 0-.824.09-1.175.27-.344.175-.635.44-.873.796-.239.355-.42.798-.546 1.328-.125.523-.187 1.134-.187 1.833v.823c0 .698.062 1.312.187 1.842.132.53.323.973.574 1.328.25.35.567.614.949.795.388.18.84.271 1.353.271.401 0 .74-.03 1.015-.093a2.7 2.7 0 0 0 .676-.253c.176-.106.307-.202.395-.29v-2.263h-2.434v-2.123h5.498m14.146.084v.608c0 1.035-.145 1.964-.433 2.787-.282.823-.686 1.525-1.212 2.104a5.294 5.294 0 0 1-1.861 1.338c-.714.305-1.507.458-2.378.458-.87 0-1.666-.153-2.386-.458a5.48 5.48 0 0 1-1.88-1.338c-.526-.58-.933-1.28-1.222-2.104-.288-.823-.432-1.752-.432-2.787v-.608c0-1.034.144-1.963.432-2.786.289-.83.693-1.534 1.213-2.114a5.28 5.28 0 0 1 1.87-1.328c.72-.312 1.516-.468 2.387-.468.87 0 1.666.156 2.387.468.72.306 1.34.748 1.86 1.328.526.58.934 1.284 1.222 2.114.288.822.432 1.752.432 2.786m-3.093.608v-.626c0-.692-.062-1.303-.187-1.833-.126-.537-.308-.985-.546-1.347a2.334 2.334 0 0 0-.883-.814 2.496 2.496 0 0 0-1.193-.28c-.464 0-.868.093-1.213.28a2.36 2.36 0 0 0-.874.814c-.231.362-.41.81-.535 1.347a8.422 8.422 0 0 0-.179 1.833v.626c0 .686.06 1.297.179 1.833.125.53.307.98.545 1.347.238.368.53.645.874.832.35.187.758.28 1.221.28.445 0 .84-.093 1.185-.28a2.39 2.39 0 0 0 .883-.832c.238-.368.416-.817.535-1.347a8.091 8.091 0 0 0 .188-1.833m17.022-.608v.608c0 1.035-.144 1.964-.432 2.787-.282.823-.686 1.525-1.212 2.104a5.293 5.293 0 0 1-1.86 1.338c-.715.305-1.508.458-2.378.458-.871 0-1.667-.153-2.387-.458a5.48 5.48 0 0 1-1.88-1.338c-.526-.58-.933-1.28-1.221-2.104-.288-.823-.433-1.752-.433-2.787v-.608c0-1.034.145-1.963.433-2.786.288-.83.692-1.534 1.212-2.114a5.28 5.28 0 0 1 1.87-1.328c.72-.312 1.516-.468 2.387-.468.87 0 1.666.156 2.387.468a5.19 5.19 0 0 1 1.86 1.328c.527.58.934 1.284 1.222 2.114.288.822.432 1.752.432 2.786m-3.091.608v-.626a8.03 8.03 0 0 0-.188-1.833c-.126-.537-.307-.985-.545-1.347a2.334 2.334 0 0 0-.884-.814 2.497 2.497 0 0 0-1.193-.28c-.464 0-.868.093-1.212.28a2.352 2.352 0 0 0-.874.814c-.232.362-.41.81-.536 1.347a8.422 8.422 0 0 0-.178 1.833v.626c0 .686.06 1.297.178 1.833.125.53.307.98.545 1.347.238.368.53.645.874.832.35.187.758.28 1.222.28.444 0 .84-.093 1.184-.28a2.39 2.39 0 0 0 .883-.832c.238-.368.417-.817.536-1.347a8.091 8.091 0 0 0 .188-1.833m9.945 6.5h-3.008l.02-2.357h2.988c.682 0 1.259-.156 1.729-.467.47-.318.827-.786 1.071-1.403.244-.624.366-1.381.366-2.273v-.626c0-.674-.068-1.266-.206-1.777-.138-.518-.342-.951-.611-1.3a2.53 2.53 0 0 0-1.006-.786c-.394-.174-.849-.261-1.362-.261h-3.045v-2.367h3.045c.927 0 1.773.156 2.537.468a5.676 5.676 0 0 1 1.992 1.337 6.05 6.05 0 0 1 1.306 2.058c.307.792.461 1.674.461 2.646v.608c0 .967-.154 1.849-.461 2.647a6.05 6.05 0 0 1-1.306 2.057 5.76 5.76 0 0 1-1.983 1.328c-.764.312-1.607.468-2.527.468m-1.27-13.617v13.617H95.92V13.196h3.064m17.151 10.026c0-.23-.034-.437-.103-.617a1.252 1.252 0 0 0-.376-.515 3.423 3.423 0 0 0-.77-.467 9.554 9.554 0 0 0-1.307-.496 17.72 17.72 0 0 1-1.757-.673 7.571 7.571 0 0 1-1.475-.889 3.891 3.891 0 0 1-1.025-1.178c-.244-.45-.366-.973-.366-1.571 0-.58.128-1.104.385-1.571a3.577 3.577 0 0 1 1.081-1.198 5.078 5.078 0 0 1 1.635-.766 7.441 7.441 0 0 1 2.067-.272c1.003 0 1.883.178 2.641.533.764.35 1.36.842 1.786 1.478.426.63.639 1.362.639 2.198h-3.045a1.96 1.96 0 0 0-.235-.973 1.575 1.575 0 0 0-.695-.673c-.307-.162-.693-.243-1.156-.243-.451 0-.83.068-1.137.205-.301.131-.53.312-.686.543-.151.23-.226.483-.226.757 0 .218.056.418.169.599.119.174.288.34.508.495a5 5 0 0 0 .827.43c.325.138.698.269 1.118.393a13.53 13.53 0 0 1 1.945.767c.57.28 1.049.599 1.438.954.388.356.68.758.874 1.207.2.449.301.957.301 1.524 0 .605-.119 1.141-.358 1.609-.231.467-.57.866-1.014 1.197-.439.324-.965.57-1.579.738-.614.169-1.3.253-2.058.253a8.055 8.055 0 0 1-2.039-.262 6.04 6.04 0 0 1-1.823-.823 4.214 4.214 0 0 1-1.297-1.403c-.32-.573-.48-1.253-.48-2.038h3.064c0 .411.059.76.179 1.047.119.28.288.508.507.683.225.174.498.299.818.374a4.69 4.69 0 0 0 1.071.112c.457 0 .827-.062 1.109-.187a1.4 1.4 0 0 0 .639-.533 1.4 1.4 0 0 0 .206-.748m16.329-1.142h-3.44v-2.365h3.44c.507 0 .914-.084 1.221-.253a1.56 1.56 0 0 0 .686-.692c.151-.3.226-.636.226-1.01 0-.386-.075-.745-.226-1.075a1.807 1.807 0 0 0-.686-.814c-.307-.206-.714-.309-1.221-.309h-2.331v11.251h-3.063V13.196h5.394c1.09 0 2.023.197 2.8.59.783.392 1.381.932 1.795 1.617.42.68.629 1.46.629 2.338 0 .88-.209 1.643-.629 2.292-.414.648-1.012 1.153-1.795 1.515-.777.355-1.71.533-2.8.533m11.796-6.294-3.534 11.026h-3.27l5.065-13.617h2.068l-.329 2.59m2.932 11.026-3.543-11.026-.367-2.59h2.096l5.084 13.616zm-.151-5.069V24.1h-7.132v-2.357h7.132m5.199-8.547h5.254c1.046 0 1.951.156 2.715.468.771.312 1.363.773 1.776 1.384.414.611.621 1.365.621 2.263 0 .749-.123 1.384-.367 1.908a3.458 3.458 0 0 1-1.034 1.3 5.5 5.5 0 0 1-1.541.832l-.996.543h-4.473l-.019-2.366h3.327c.457 0 .836-.081 1.137-.243.301-.163.526-.39.677-.683.156-.3.235-.649.235-1.048 0-.411-.079-.766-.235-1.066a1.566 1.566 0 0 0-.696-.682c-.301-.162-.676-.243-1.127-.243h-2.19v11.25h-3.064zm7.575 13.617-3.073-6.05 3.232-.01 3.12 5.92v.14zm11.373-13.617v13.617h-3.054V13.196zm4.163 0v2.367h-11.296v-2.367h11.296m13.44 0v13.617h-3.054l-5.168-8.8v8.8h-3.064V13.196h3.064l5.178 8.8v-8.8h3.044m12.21 11.26v2.357h-7.283v-2.357zm-6.24-11.26v13.617h-3.063V13.196zm5.3 5.48v2.283h-6.343v-2.282h6.343m.949-5.48v2.367h-7.292v-2.367h7.292m2.136-.001h5.253c1.046 0 1.952.156 2.716.468.771.312 1.363.773 1.776 1.384.414.611.62 1.365.62 2.263 0 .749-.122 1.384-.366 1.908a3.458 3.458 0 0 1-1.034 1.3 5.5 5.5 0 0 1-1.541.832l-.996.543h-4.473l-.019-2.366h3.327c.457 0 .836-.081 1.137-.243.3-.163.526-.39.676-.683.157-.3.235-.649.235-1.048 0-.411-.078-.766-.235-1.066a1.56 1.56 0 0 0-.695-.682c-.301-.162-.677-.243-1.128-.243h-2.189v11.25h-3.064V13.196m7.574 13.617-3.073-6.05 3.233-.01 3.12 5.92v.14z"/><rect width="40.0457" height="40" fill="#1976D2" rx="4"/><path fill="#fff" d="M19.805 20.232v5.374c-.22.25-.556.519-1.008.806-.447.287-1.018.534-1.715.741-.696.202-1.527.302-2.493.302-.873 0-1.668-.14-2.383-.42a5.074 5.074 0 0 1-1.842-1.255c-.513-.555-.91-1.233-1.192-2.032-.274-.8-.412-1.716-.412-2.747v-.787c0-1.032.138-1.947.412-2.747.275-.8.663-1.474 1.164-2.023a4.922 4.922 0 0 1 1.788-1.264c.69-.287 1.454-.43 2.291-.43 1.192 0 2.166.192 2.924.577.758.378 1.332.903 1.723 1.575.397.67.642 1.443.734 2.316h-2.878a3.204 3.204 0 0 0-.367-1.154 1.783 1.783 0 0 0-.76-.741c-.33-.177-.759-.266-1.284-.266-.422 0-.804.089-1.146.266-.336.17-.62.43-.852.778-.232.348-.41.781-.532 1.3-.122.513-.183 1.11-.183 1.794v.806c0 .684.061 1.285.183 1.804.128.518.315.952.56 1.3.244.341.552.6.925.778.379.177.819.265 1.32.265.391 0 .72-.03.99-.091a2.63 2.63 0 0 0 .66-.247c.17-.104.3-.199.385-.284V22.31h-2.374v-2.078zm7.305 2.408h-2.888v-2.317h2.888c.495 0 .892-.082 1.191-.247.306-.165.529-.39.67-.677a2.18 2.18 0 0 0 .22-.989c0-.378-.074-.73-.22-1.053a1.767 1.767 0 0 0-.67-.796c-.3-.202-.696-.302-1.191-.302h-2.273v11.013h-2.988v-13.33h5.26c1.064 0 1.974.192 2.732.577.764.385 1.348.912 1.75 1.584.41.665.615 1.428.615 2.289 0 .86-.205 1.608-.614 2.243-.403.634-.987 1.129-1.75 1.483-.758.348-1.669.522-2.732.522"/></svg>