<svg xmlns="http://www.w3.org/2000/svg" width="64" height="64" fill="none" viewBox="0 0 64 64"><path fill="#1976D2" fill-rule="evenodd" d="M25 39h-5a4 4 0 0 1-4-4V20a4 4 0 0 1 4-4h15a4 4 0 0 1 4 4v5h5a4 4 0 0 1 4 4v15a4 4 0 0 1-4 4H29a4 4 0 0 1-4-4zm9-19a1 1 0 0 1 1 1v4h-6a4 4 0 0 0-4 4v6h-4a1 1 0 0 1-1-1V21a1 1 0 0 1 1-1zm5 9h4a1 1 0 0 1 1 1v13a1 1 0 0 1-1 1H30a1 1 0 0 1-1-1v-4h6a4 4 0 0 0 4-4zm-4 0v5a1 1 0 0 1-1 1h-5v-5a1 1 0 0 1 1-1z" clip-rule="evenodd"/><rect width="63" height="63" x="0.5" y="0.5" stroke="#D3D3D3" rx="31.5"/></svg>